<?xml version="1.0" encoding="iso-8859-1"?>
<!-- Uploaded to: SVG Repo, www.svgrepo.com, Generator: SVG Repo Mixer Tools -->
<!DOCTYPE svg PUBLIC "-//W3C//DTD SVG 1.1//EN" "http://www.w3.org/Graphics/SVG/1.1/DTD/svg11.dtd">
<svg fill="#000000" height="800px" width="800px" version="1.1" id="Capa_1" xmlns="http://www.w3.org/2000/svg" xmlns:xlink="http://www.w3.org/1999/xlink" 
	 viewBox="0 0 262.082 262.082" xml:space="preserve">
<g>
	<path d="M238.001,75.322c-1.994-2.213-4.267-4.286-6.864-6.19c-29.532-21.654-78.306-12.307-89.035,24.319
		c-4.266,14.561-2.183,29.527-2.246,44.411c-0.093,21.643-5.611,39.897-10.022,60.738c-3.935,18.591-3.165,34.117,9.089,49.043
		c0.046,0.056,0.106,0.072,0.155,0.121c0.11,0.17,0.161,0.371,0.357,0.49c0.783,0.473,1.542,0.778,2.319,1.204
		c22.145,24.296,58.93,11.304,76.701-20.077c15.919-28.11,32.458-68.14,37.912-99.719
		C260.163,107.672,253.846,89.706,238.001,75.322z M143.578,164.743c0.673,0.698,1.515,1.315,2.768,1.712
		c10.436,3.308,19.437-24.156,23.046-30.331c5.512-9.43,10.643-19.512,17.588-27.986c3.892-4.749,7.994-12.569,14.855-8.793
		c4.421,2.433,7.751,15.978,8.803,20.481c5.176,22.151-5.43,44.134,1.17,66.272c0.517,1.735,2.382,2.389,3.939,1.603
		c14.798-7.472,13.782-30.992,12.403-44.998c-1.984-20.153-9.795-39.586-23.922-54.223c-0.799-0.828-1.964-0.35-2.423,0.476
		c-17.657-0.649-31.047,5.027-42.257,18.865c-4.009,4.949-10.725,15.21-14.452,25.233c-0.381-6.489-0.773-12.978-0.376-19.459
		c2.179-35.616,33.353-58.319,67.331-47.518c54.325,17.27,27.549,73.57,15.57,108.162c-12.987,37.5-31.423,86.895-78.633,74.001
		c-2.559-1.599-5.02-3.394-7.364-5.374C125.407,218.284,138.334,191.443,143.578,164.743z M231.231,187.037
		c-7.272,19.19-13.411,41.227-28.004,56.37c-10.546,10.943-23.014,14.13-35.084,12.226c25.033-2.303,44.492-27.754,54.302-53.091
		c9.849-25.438,32.095-70.191,26.445-103.727C258.738,126.297,241.999,158.616,231.231,187.037z"/>
	<path d="M124.047,128.911c-14.789-45.65,3.634-140.923-74.999-127.656c-0.674,0.113-1.104,0.449-1.379,0.869
		C41.783,2.923,35.61,5.039,29.206,8.815c-47.59,28.068-14.16,110.92,1.749,147.234c7.069,16.138,26.946,46.626,47.131,51.277
		c13.194,5.139,27.623,2.841,39.37-8.186C137.805,180.039,131.597,152.217,124.047,128.911z M66.911,14.388
		c42.34,16.922,28.08,54.129,32.517,89.839c-3.033-12.137-7.826-24.288-13.775-35.146c-6.415-11.707-25.215-40.896-41.478-39.488
		c-0.879,0.076-1.397,0.631-1.608,1.418C27.655,37.946,21.94,69.56,20.405,83.236c-1.243,11.078-1.883,49.935,12.423,55.118
		c8.142,2.95,9.413-3.175,9.509-10.279c0.188-13.95-4.325-27.791-4.024-41.95c0.348-16.324,4.562-30.433,8.15-45.65
		c14.491,17.314,26.492,35.433,34.212,56.942c3.409,9.498,5.053,23.924,16.538,26.854c0.702,0.179,1.566,0.019,2.066-0.546
		c2.256-2.553,2.902-4.77,2.815-7.154c7.491,24.748,25.945,58.254,3.347,75.753c0.093-0.843-0.975-1.538-1.685-0.839
		C38.554,255.719-46.145-30.798,66.911,14.388z M94.949,204.179c0.938-0.635,1.87-1.331,2.792-2.145
		c0.215-0.012,0.428-0.014,0.658-0.106c13.606-5.47,20.691-15.22,22.67-30.178c1.689-12.771-2.551-24.473-6.574-36.358
		c-7.586-22.415-8.474-42.012-8.664-65.33c-0.201-24.674-14.127-53.684-35.622-64.226c24.061,4.508,38.304,26.408,40.42,53.815
		c1.147,14.859-0.681,29.663,1.973,44.46c1.93,10.764,6.379,20.438,9.35,30.867c3.656,9.65,5.709,19.671,6.158,30.063
		C125.554,189.969,114.469,202.972,94.949,204.179z"/>
</g>
</svg>