<?xml version="1.0" encoding="utf-8"?>
<!-- Uploaded to: SVG Repo, www.svgrepo.com, Generator: SVG Repo Mixer Tools -->
<svg fill="#000000" height="800px" width="800px" version="1.2" baseProfile="tiny" id="Layer_1" xmlns="http://www.w3.org/2000/svg" xmlns:xlink="http://www.w3.org/1999/xlink"
	  viewBox="-1095 905 256 256" xml:space="preserve">
<path d="M-858,959c-1.6-1.6-4.3-1.7-6-0.2c-0.8,0.7-76.1,68.2-106.4,95.5c-4.2,3.8-10.7,5.7-19.3,5.7h0c-17.9,0-32.9-4.8-33.1-4.9
	c-1.2-0.5-2.6-0.5-3.8,0.2c-5.2,2.9-24.8,19.5-68.3,37.2v17.5c0,0,39.9,0,120.7-0.1c15.7,0,84.3-62.3,91.8-65.5
	c1.2,1,2.1,63.8,2.1,65.6l25.7-0.1l0.7-41.3c0-19.5,13-42,13-46.3C-841,1020.7-839.5,977.5-858,959z"/>
</svg>